<svg width="1200" height="800" viewBox="0 0 1200 800" xmlns="http://www.w3.org/2000/svg">
  <defs>
    <linearGradient id="paper" x1="0" y1="0" x2="1" y2="1">
      <stop offset="0%" stop-color="#ffe6ee" />
      <stop offset="100%" stop-color="#ffccd9" />
    </linearGradient>
  </defs>
  <rect width="1200" height="800" fill="#fff0f4" />
  <path d="M50 70 C110 10 190 120 250 70 S410 90 470 70 S590 10 650 70 S790 90 850 70 S970 10 1030 70 S1150 90 1200 70 L1200 730 C1140 790 1060 680 1000 730 S860 710 800 730 S680 790 620 730 S500 710 440 730 S320 790 260 730 S140 710 80 730 L50 70 Z" fill="#ff97ac" opacity="0.95" />
  <rect x="120" y="120" width="960" height="560" rx="40" fill="url(#paper)" stroke="#ff7388" stroke-width="6" />
  <text x="170" y="200" font-family="Great Vibes, cursive" font-size="64" fill="#d8445c">Price List</text>
  <text x="170" y="280" font-family="Great Vibes, cursive" font-size="40" fill="#4a1f2d">Senior Photos — $100</text>
  <text x="170" y="330" font-family="Montserrat, sans-serif" font-size="22" fill="#7d5469">1.5–2 hour session • 2 outfits • 1 location • 30+ edited images</text>
  <text x="170" y="410" font-family="Great Vibes, cursive" font-size="40" fill="#4a1f2d">Family Photos — $100</text>
  <text x="170" y="460" font-family="Montserrat, sans-serif" font-size="22" fill="#7d5469">1 location • Includes individual portraits + full family/group photos • 30+ edited images</text>
  <text x="170" y="540" font-family="Great Vibes, cursive" font-size="40" fill="#4a1f2d">Group Photos — $30/person</text>
  <text x="170" y="590" font-family="Montserrat, sans-serif" font-size="22" fill="#7d5469">1.5–2 hour session • 1 location • 30+ edited images • Includes individual + group photos</text>
  <text x="170" y="670" font-family="Great Vibes, cursive" font-size="32" fill="#4a1f2d">Add ons</text>
  <text x="170" y="710" font-family="Montserrat, sans-serif" font-size="22" fill="#7d5469">Extra location: +$25 • Additional outfit: +$25 • Rush editing: +$25 • 1+ hour drive: +$25</text>
</svg>
